/* XPM */
static char *PINEAPPLE[] = {
/* columns rows colors chars-per-pixel */
"64 51 9 1 ",
"  c None",
". c #211F30",
"X c #076029",
"o c #D2612F",
"O c #28860F",
"+ c #72A11D",
"@ c #E68D41",
"# c #F2BC7E",
"$ c #A4CC42",
/* pixels */

"                                                                ",
"                                                                ",
"                                                                ",
"                                                                ",
"                                                                ",
"                                                                ",
"                                                                ",
"                                                                ",
"                                                                ",
"                                                                ",
"                                ..                              ",
"                            ..  +$  ..                          ",
"                            ... +$ ...                          ",
"                            ....+$....                          ",
"                            ....+$....                          ",
"                            .OX++++XO.                          ",
"                             ..XOOX..                           ",
"                            .oooooooo.                          ",
"                           .o@@oooo@@o.                         ",
"                          .@oo@@@##ooo@.                        ",
"                          .@@@@@@@@###@.                        ",
"                         .@@@@@@@@#####@.                       ",
"                         .o@@@oooo#####o.                       ",
"                         .@@@@@@@@#####@.                       ",
"                         .@@@@@@@@#####@.                       ",
"                        .@@@@@@@@@@#####@.                      ",
"                        .@@@@@@@@@@#####@.                      ",
"                        .@@@@@@@@@@#####@.                      ",
"                       .@@@@@@@@@@@#####@.                      ",
"                       .o@@@oooooooo#####o.                     ",
"                       .o@@@oooooooo#####o.                     ",
"                       .o@@@oooooooo#####o.                     ",
"                       .o@@@oooooooo#####o.                     ",
"                       .o@@@oooooooo#####o.                     ",
"                       .o@@@ooooooo#####o.                      ",
"                        .@@@@@@@@@@#####@.                      ",
"                        .@@@@@@@@@@#####@.                      ",
"                        .@@@@@@@@@@#####@.                      ",
"                         .@@@@@@@@#####@.                       ",
"                         .o@@@oooo#####o.                       ",
"                          .o@@@oooo###o.                        ",
"                          .@ooo@@##@oo@.                        ",
"                          .o@@oooooo@@o.                        ",
"                           .oooooooooo.                         ",
"                           .oooooooooo.                         ",
"                            ..........                          ",
"                                                                ",
"                                                                ",
"                                                                ",
"                                                                ",
"                                                                ",
};
