/* XPM */
static char * mysprite4_xpm[] = {
"64 64 2 1",
" 	c None",
".	c #000000",
"                                                                ",
"                                                                ",
"                                                                ",
"                                                                ",
"                                                                ",
"                                                                ",
"                                                                ",
"                                                                ",
"                                                                ",
"                                                                ",
"                                                                ",
"                                          ..........            ",
"                                        ..............          ",
"                                        ..............          ",
"                                       ....        .....        ",
"                                      ....          ....        ",
"                                     .....           ....       ",
"                                     ....            ....       ",
"                                     ...             ...        ",
"                                     ...             ...        ",
"                                     ....           ....        ",
"                                     .....          ....        ",
"                                      .....         ....        ",
"                                       ....... ........         ",
"                                        ...............         ",
"                                         .............          ",
"                                            .......             ",
"                                               ...              ",
"                                               ..............   ",
"                                               ..............   ",
"                                               ..............   ",
"                                              ...........       ",
"                                              ........          ",
"                                              ...........       ",
"                                              ..............    ",
"                                              ....  ........    ",
"                                              ....      ...     ",
"                                              ....              ",
"                                              ....              ",
"                                              ....              ",
"                                              .....             ",
"                                               .....            ",
"                                               .......          ",
"                                               ........         ",
"                                               ..........       ",
"                                               ...  .......     ",
"                                              ....   ......     ",
"                                              ....     .....    ",
"                                             ....        ...    ",
"                                            .....        ...    ",
"                                          ......         ...    ",
"                                         ......          ...    ",
"                                        .....            ...    ",
"                                       .......           ....   ",
"                                      ........           ...... ",
"                                      ........           ...... ",
"                                                           ...  ",
"                                                                ",
"                                                                ",
"                                                                ",
"                                                                ",
"                                                                ",
"                                                                ",
"                                                                "};
